<?xml version="1.0" standalone="no"?>
<!DOCTYPE svg PUBLIC "-//W3C//DTD SVG 20010904//EN"
 "http://www.w3.org/TR/2001/REC-SVG-20010904/DTD/svg10.dtd">
<svg version="1.0" xmlns="http://www.w3.org/2000/svg"
 width="300.000000pt" height="300.000000pt" viewBox="0 0 300.000000 300.000000"
 preserveAspectRatio="xMidYMid meet">
<metadata>
Created by potrace 1.10, written by Peter Selinger 2001-2011
</metadata>
<g transform="translate(0.000000,300.000000) scale(0.100000,-0.100000)"
fill="#69cc09" stroke="none">
<path d="M512 2533 c3 -33 6 -38 26 -35 18 3 22 -2 22 -22 0 -21 -5 -26 -25
-26 l-25 0 0 -880 0 -880 30 0 c23 0 30 -4 30 -20 0 -16 -7 -20 -30 -20 -28 0
-30 -3 -30 -35 0 -33 2 -35 35 -35 32 0 35 3 35 29 0 24 3 28 20 24 13 -3 20
-14 20 -29 l0 -24 880 0 880 0 0 25 c0 18 5 25 20 25 15 0 20 -7 20 -25 0 -22
4 -25 35 -25 33 0 35 2 35 35 0 31 -3 35 -25 35 -18 0 -25 5 -25 20 0 15 7 20
25 20 l25 0 0 880 0 880 -25 0 c-20 0 -25 5 -25 25 0 22 3 25 25 19 24 -6 25
-4 25 36 0 41 -1 41 -32 38 -29 -3 -33 -7 -33 -30 1 -23 -4 -28 -22 -28 -19 0
-23 5 -23 30 l0 30 -880 0 -880 0 0 -30 c0 -25 -4 -30 -23 -30 -18 0 -23 5
-22 28 0 23 -4 27 -33 30 -33 3 -33 3 -30 -35z m48 -3 c0 -13 -7 -20 -20 -20
-13 0 -20 7 -20 20 0 13 7 20 20 20 13 0 20 -7 20 -20z m1810 0 c0 -16 -7 -20
-30 -20 -27 0 -30 -3 -30 -30 0 -23 -4 -30 -20 -30 -16 0 -20 7 -20 30 0 28
-3 30 -35 30 -33 0 -35 -2 -35 -35 0 -31 3 -35 25 -35 19 0 25 -5 25 -22 0
-21 -4 -23 -50 -20 l-50 4 0 54 0 54 -650 0 -650 0 0 -60 0 -60 -50 0 c-47 0
-50 2 -50 25 0 20 5 25 25 25 22 0 25 4 25 33 0 32 -1 33 -35 29 -29 -3 -35
-8 -35 -28 0 -17 -6 -24 -20 -24 -16 0 -20 7 -20 30 0 27 -3 30 -30 30 -23 0
-30 4 -30 20 0 20 7 20 870 20 863 0 870 0 870 -20z m110 0 c0 -13 -7 -20 -20
-20 -13 0 -20 7 -20 20 0 13 7 20 20 20 13 0 20 -7 20 -20z m-1860 -55 c0 -20
-5 -25 -24 -25 -19 0 -22 4 -18 25 3 16 11 25 23 25 14 0 19 -7 19 -25z m58
-2 c3 -19 -1 -23 -22 -23 -21 0 -26 5 -26 26 0 21 4 25 23 22 14 -2 23 -11 25
-25z m1462 -35 l0 -58 54 0 c52 0 55 -1 58 -27 2 -24 7 -28 31 -26 27 2 27 1
27 -58 l0 -59 55 0 55 0 0 -640 0 -640 -55 0 -55 0 0 -55 c0 -55 0 -55 -31
-55 -29 0 -31 -2 -27 -30 l5 -30 -59 0 -58 0 0 -55 0 -55 -640 0 -640 0 0 55
0 55 -55 0 c-54 0 -55 0 -55 30 0 26 -4 30 -27 30 -28 0 -28 1 -25 55 l4 55
-61 0 -61 0 0 640 0 640 55 0 55 0 0 58 c0 56 1 58 28 57 22 0 28 5 30 28 3
26 6 27 58 27 l54 0 0 58 0 57 640 0 640 0 0 -57z m230 37 c0 -20 -5 -25 -25
-25 -20 0 -25 5 -25 25 0 20 5 25 25 25 20 0 25 -5 25 -25z m52 0 c4 -21 1
-25 -18 -25 -19 0 -24 5 -24 25 0 18 5 25 19 25 12 0 20 -9 23 -25z m-1632 -5
c0 -13 -7 -20 -20 -20 -13 0 -20 7 -20 20 0 13 7 20 20 20 13 0 20 -7 20 -20z
m1460 0 c0 -13 -7 -20 -20 -20 -13 0 -20 7 -20 20 0 13 7 20 20 20 13 0 20 -7
20 -20z m-1690 -60 c0 -27 3 -30 30 -30 23 0 30 -4 30 -20 0 -16 -7 -20 -30
-20 -28 0 -30 -3 -30 -35 0 -33 2 -35 35 -35 32 0 35 3 35 29 0 25 3 28 25 23
24 -4 26 -8 23 -51 l-3 -46 -55 0 -55 0 -1 -360 c0 -198 1 -492 4 -653 l4
-292 54 0 54 0 0 -50 c0 -43 -3 -50 -19 -50 -14 0 -21 8 -23 28 -3 23 -8 27
-33 27 -28 0 -30 -3 -33 -39 -3 -37 -2 -38 22 -34 22 4 26 2 26 -18 0 -19 -5
-24 -25 -24 -21 0 -25 -5 -25 -31 0 -26 -3 -30 -22 -27 l-23 3 -3 868 c-2 862
-2 867 18 867 16 0 20 -7 20 -30z m60 5 c0 -18 -5 -25 -19 -25 -12 0 -20 9
-23 25 -4 21 -1 25 18 25 19 0 24 -5 24 -25z m60 0 c0 -20 -5 -25 -25 -25 -20
0 -25 5 -25 25 0 20 5 25 25 25 20 0 25 -5 25 -25z m50 0 c0 -18 -5 -25 -20
-25 -15 0 -20 7 -20 25 0 18 5 25 20 25 15 0 20 -7 20 -25z m1580 1 c0 -19 -4
-23 -20 -19 -11 3 -20 14 -20 24 0 12 7 19 20 19 14 0 20 -7 20 -24z m60 5 c0
-12 -9 -20 -25 -23 -21 -4 -25 -1 -25 18 0 19 5 24 25 24 18 0 25 -5 25 -19z
m53 0 c-3 -11 -13 -21 -24 -24 -15 -4 -19 0 -19 19 0 19 5 24 24 24 19 0 23
-4 19 -19z m57 -851 c0 -863 0 -870 -20 -870 -16 0 -20 7 -20 30 0 27 -3 30
-30 30 -25 0 -30 4 -30 24 0 21 5 24 28 23 25 -2 27 1 27 33 0 32 -3 35 -32
38 -31 3 -33 1 -33 -27 0 -26 -4 -31 -24 -31 -21 0 -23 4 -25 50 l-1 50 60 0
60 0 0 650 0 650 -60 0 -60 0 0 55 c0 52 1 55 25 55 21 0 25 -5 25 -30 0 -27
3 -30 30 -30 28 0 30 3 30 35 0 31 -3 35 -25 35 -18 0 -25 5 -25 20 0 16 7 20
30 20 27 0 30 3 30 30 0 23 4 30 20 30 20 0 20 -7 20 -870z m-1800 790 c0 -15
-7 -20 -25 -20 -18 0 -25 5 -25 20 0 15 7 20 25 20 18 0 25 -5 25 -20z m50 0
c0 -13 -7 -20 -20 -20 -13 0 -20 7 -20 20 0 13 7 20 20 20 13 0 20 -7 20 -20z
m1580 0 c0 -13 -7 -20 -20 -20 -13 0 -20 7 -20 20 0 13 7 20 20 20 13 0 20 -7
20 -20z m60 0 c0 -15 -7 -20 -25 -20 -18 0 -25 5 -25 20 0 15 7 20 25 20 18 0
25 -5 25 -20z m-1750 -55 c0 -18 -5 -25 -20 -25 -25 0 -27 37 -2 43 9 3 18 5
20 6 1 0 2 -10 2 -24z m1800 -2 c0 -16 -6 -23 -20 -23 -14 0 -20 7 -20 23 0
16 6 23 20 23 14 0 20 -7 20 -23z m-1800 -1463 c0 -13 -7 -20 -20 -20 -13 0
-20 7 -20 20 0 13 7 20 20 20 13 0 20 -7 20 -20z m1800 0 c0 -13 -7 -20 -20
-20 -13 0 -20 7 -20 20 0 13 7 20 20 20 13 0 20 -7 20 -20z m-1740 -56 c0 -17
-5 -24 -20 -24 -14 0 -20 7 -20 23 0 16 6 23 20 24 15 1 20 -4 20 -23z m60 -5
c0 -13 -7 -19 -23 -19 -19 0 -23 5 -21 23 1 12 3 23 3 24 1 0 10 -1 21 -4 11
-3 20 -14 20 -24z m1570 6 c0 -18 -5 -25 -20 -25 -35 0 -24 45 13 49 4 1 7
-10 7 -24z m60 0 c0 -20 -5 -25 -25 -25 -18 0 -25 5 -25 18 0 24 8 32 32 32
13 0 18 -7 18 -25z m-1750 -60 c0 -18 -5 -25 -20 -25 -15 0 -20 7 -20 25 0 18
5 25 20 25 15 0 20 -7 20 -25z m60 0 c0 -18 -5 -25 -20 -25 -15 0 -20 7 -20
25 0 18 5 25 20 25 15 0 20 -7 20 -25z m60 -1 c0 -21 -4 -25 -22 -22 -15 2
-24 11 -26 26 -3 18 1 22 22 22 21 0 26 -5 26 -26z m110 -34 l0 -60 650 0 650
0 0 60 0 60 50 0 c47 0 50 -2 50 -25 0 -20 -5 -25 -25 -25 -21 0 -25 -5 -25
-30 0 -28 3 -30 35 -30 31 0 35 3 35 25 0 18 5 25 20 25 16 0 20 -7 20 -30 0
-27 3 -30 30 -30 23 0 30 -4 30 -20 0 -20 -7 -20 -865 -20 l-865 0 0 23 c0 18
5 23 28 22 23 0 27 4 27 28 -1 22 4 27 22 27 19 0 23 -5 23 -31 0 -28 2 -30
33 -27 28 3 32 7 35 36 3 30 1 32 -27 32 -26 0 -31 4 -31 25 0 23 3 25 50 25
l50 0 0 -60z m1460 35 c0 -18 -5 -25 -20 -25 -15 0 -20 7 -20 25 0 18 5 25 20
25 15 0 20 -7 20 -25z m60 0 c0 -20 -5 -25 -25 -25 -20 0 -25 5 -25 25 0 20 5
25 25 25 20 0 25 -5 25 -25z m50 0 c0 -18 -5 -25 -20 -25 -15 0 -20 7 -20 25
0 18 5 25 20 25 15 0 20 -7 20 -25z m-1800 -55 c0 -13 -7 -20 -20 -20 -13 0
-20 7 -20 20 0 13 7 20 20 20 13 0 20 -7 20 -20z m60 0 c0 -13 -7 -20 -20 -20
-13 0 -20 7 -20 20 0 13 7 20 20 20 13 0 20 -7 20 -20z m120 0 c0 -15 -7 -20
-25 -20 -18 0 -25 5 -25 20 0 15 7 20 25 20 18 0 25 -5 25 -20z m1450 0 c0
-13 -7 -20 -20 -20 -13 0 -20 7 -20 20 0 13 7 20 20 20 13 0 20 -7 20 -20z
m120 0 c0 -15 -7 -20 -25 -20 -18 0 -25 5 -25 20 0 15 7 20 25 20 18 0 25 -5
25 -20z m53 0 c-3 -11 -14 -20 -24 -20 -12 0 -19 7 -19 20 0 14 7 20 24 20 19
0 23 -4 19 -20z m-1853 -60 c0 -15 -7 -20 -25 -20 -18 0 -25 5 -25 20 0 15 7
20 25 20 18 0 25 -5 25 -20z m1910 0 c0 -13 -7 -20 -20 -20 -13 0 -20 7 -20
20 0 13 7 20 20 20 13 0 20 -7 20 -20z"/>
<path d="M1128 2443 c6 -2 18 -2 25 0 6 3 1 5 -13 5 -14 0 -19 -2 -12 -5z"/>
<path d="M1949 2171 c-30 -30 -39 -77 -19 -97 7 -7 -15 -32 -67 -79 -123 -109
-110 -101 -133 -80 -26 24 -85 25 -107 3 -15 -16 -22 -11 -102 60 -55 49 -90
88 -98 110 -14 43 -39 61 -84 62 -42 0 -73 -28 -86 -77 -6 -23 -37 -58 -110
-122 -56 -50 -105 -86 -108 -81 -3 6 -23 10 -44 10 -44 0 -77 -29 -87 -78 -9
-43 38 -92 90 -92 52 0 93 49 82 100 -4 25 4 36 77 101 125 111 112 103 139
85 31 -22 70 -20 102 5 l26 21 85 -77 c68 -62 85 -83 85 -105 0 -65 80 -101
132 -60 15 12 31 35 35 51 6 20 41 58 108 118 88 78 102 87 122 78 31 -14 80
8 99 45 46 89 -66 170 -137 99z m99 -23 c28 -28 2 -88 -38 -88 -40 0 -66 60
-38 88 7 7 24 12 38 12 14 0 31 -5 38 -12z m-676 -45 c26 -23 23 -59 -7 -79
-23 -15 -27 -15 -50 0 -29 19 -32 51 -8 78 20 22 41 23 65 1z m344 -228 c15
-23 15 -27 0 -51 -24 -36 -76 -31 -90 8 -20 57 57 93 90 43z m-698 -41 c30
-21 29 -59 -3 -80 -23 -15 -27 -15 -50 0 -32 21 -33 59 -3 80 12 9 25 16 28
16 3 0 16 -7 28 -16z"/>
<path d="M1368 1473 c7 -3 16 -2 19 1 4 3 -2 6 -13 5 -11 0 -14 -3 -6 -6z"/>
<path d="M830 1420 c0 -5 7 -10 15 -10 12 0 15 -16 15 -85 0 -73 -2 -85 -17
-85 -9 0 -13 -3 -9 -7 11 -11 95 -12 102 -2 3 5 -2 9 -10 9 -21 0 -21 48 0 71
16 18 18 16 50 -24 42 -53 21 -65 -26 -15 -18 19 -27 24 -22 13 18 -36 55 -62
87 -60 17 1 30 3 31 4 0 0 -19 22 -43 48 -23 26 -43 52 -43 58 0 15 63 75 78
75 7 0 12 5 12 10 0 6 -16 10 -36 10 -29 0 -34 -3 -26 -13 9 -10 1 -24 -33
-57 l-45 -44 0 47 c0 35 4 47 15 47 8 0 15 5 15 10 0 6 -25 10 -55 10 -30 0
-55 -4 -55 -10z m70 -95 c0 -69 -3 -85 -15 -85 -12 0 -15 16 -15 85 0 69 3 85
15 85 12 0 15 -16 15 -85z"/>
<path d="M1060 1420 c0 -5 5 -10 10 -10 6 0 10 -35 10 -85 0 -50 -4 -85 -10
-85 -5 0 -10 -3 -10 -7 0 -5 38 -9 85 -11 70 -2 87 1 91 13 4 9 3 19 -1 23 -4
4 -10 1 -12 -5 -3 -8 -22 -13 -44 -13 -37 0 -39 2 -39 30 0 34 16 39 36 13 12
-16 13 -14 14 20 0 23 -4 36 -10 32 -6 -4 -8 -11 -5 -16 4 -5 -3 -9 -14 -9
-18 0 -21 6 -21 50 l0 50 39 0 c22 0 41 -5 44 -12 2 -7 8 -10 12 -6 4 4 5 14
2 23 -5 12 -24 15 -92 15 -50 0 -85 -4 -85 -10z m60 -60 c0 -27 -4 -50 -10
-50 -5 0 -10 23 -10 50 0 28 5 50 10 50 6 0 10 -22 10 -50z m0 -90 c0 -16 -4
-30 -10 -30 -5 0 -10 14 -10 30 0 17 5 30 10 30 6 0 10 -13 10 -30z"/>
<path d="M1260 1420 c0 -5 6 -10 13 -10 9 0 12 -24 12 -85 0 -61 -3 -85 -12
-85 -7 0 -13 -4 -13 -9 0 -5 39 -8 88 -7 85 1 87 2 90 26 2 23 1 24 -11 8 -9
-11 -28 -18 -51 -18 -33 0 -36 2 -36 30 0 23 5 30 19 30 11 0 22 -8 24 -17 3
-10 5 0 5 22 0 22 -2 32 -5 23 -2 -10 -13 -18 -24 -18 -16 0 -19 7 -19 50 l0
50 40 0 c22 0 40 -4 40 -10 0 -5 5 -10 10 -10 6 0 10 9 10 20 0 19 -7 20 -90
20 -53 0 -90 -4 -90 -10z m70 -60 c0 -38 -4 -50 -15 -50 -11 0 -15 12 -15 50
0 38 4 50 15 50 11 0 15 -12 15 -50z m0 -90 c0 -20 -5 -30 -15 -30 -10 0 -15
10 -15 30 0 20 5 30 15 30 10 0 15 -10 15 -30z"/>
<path d="M1463 1415 c-3 -9 -2 -19 2 -23 4 -4 10 -1 12 6 11 29 23 8 23 -37 0
-39 -4 -51 -17 -54 -17 -4 -17 -5 0 -6 24 -1 25 -61 0 -61 -9 0 -13 -3 -9 -7
11 -11 106 -13 106 -2 0 5 -6 9 -13 9 -8 0 -14 12 -14 30 0 28 3 30 38 30 47
0 69 21 69 65 0 50 -28 65 -118 65 -56 0 -74 -3 -79 -15z m178 -26 c9 -18 3
-68 -10 -70 -3 -1 -22 -2 -41 -4 l-35 -4 0 50 c0 44 2 49 20 47 16 -2 21 -12
23 -46 2 -23 7 -40 13 -37 12 8 12 51 -1 75 -9 16 -8 18 5 14 9 -4 20 -15 26
-25z m-101 -29 c0 -38 -4 -50 -15 -50 -11 0 -15 12 -15 50 0 38 4 50 15 50 11
0 15 -12 15 -50z m0 -90 c0 -20 -5 -30 -15 -30 -10 0 -15 10 -15 30 0 20 5 30
15 30 10 0 15 -10 15 -30z"/>
<path d="M1680 1420 c0 -5 7 -10 15 -10 12 0 15 -16 15 -85 0 -70 -3 -85 -16
-85 -8 0 -13 -4 -10 -9 7 -11 95 -11 102 0 3 5 -2 9 -10 9 -13 0 -16 15 -16
85 0 69 3 85 15 85 8 0 15 5 15 10 0 6 -25 10 -55 10 -30 0 -55 -4 -55 -10z
m70 -95 c0 -69 -3 -85 -15 -85 -12 0 -15 16 -15 85 0 69 3 85 15 85 12 0 15
-16 15 -85z"/>
<path d="M1800 1420 c0 -5 7 -10 15 -10 12 0 15 -16 15 -85 0 -70 -3 -85 -16
-85 -8 0 -13 -4 -10 -9 3 -5 17 -8 31 -8 14 0 28 3 31 8 3 5 -2 9 -10 9 -13 0
-16 13 -16 67 l0 68 80 -80 80 -80 0 98 c0 80 3 97 15 97 8 0 15 5 15 10 0 6
-16 10 -35 10 -32 0 -48 -13 -26 -22 4 -1 11 -25 13 -52 l6 -48 -62 61 c-50
49 -68 61 -94 61 -17 0 -32 -4 -32 -10z m128 -74 c92 -96 80 -119 -13 -26 -41
41 -75 78 -75 82 0 22 33 1 88 -56z"/>
<path d="M2093 1410 c-77 -47 -70 -141 13 -176 29 -12 39 -12 68 0 32 13 35
13 39 -2 3 -9 5 -2 6 16 1 23 6 32 18 32 28 0 5 13 -27 15 -16 2 -30 -1 -30
-6 0 -5 8 -9 18 -9 14 -1 13 -4 -7 -21 -16 -13 -36 -19 -55 -17 -31 3 -31 3
-34 71 -3 77 6 97 48 97 27 0 66 -31 53 -43 -3 -4 -1 -7 5 -7 7 0 12 16 12 38
0 23 -3 32 -8 24 -7 -10 -15 -10 -36 -2 -37 14 -46 13 -83 -10z m-3 -87 c0
-62 -1 -66 -16 -51 -19 19 -21 82 -4 103 7 8 14 15 16 15 2 0 4 -30 4 -67z"/>
<path d="M1090 1153 c-39 -27 -49 -45 -50 -86 0 -30 7 -45 30 -68 27 -27 35
-30 85 -27 54 3 55 3 54 33 0 27 -1 28 -9 8 -10 -24 -74 -43 -91 -26 -6 6 -9
43 -7 84 3 69 5 74 27 77 36 5 69 -6 74 -26 3 -9 5 -1 6 18 0 19 -3 30 -7 23
-5 -8 -13 -9 -22 -3 -23 15 -63 12 -90 -7z m-4 -83 c0 -53 -3 -67 -12 -59 -22
18 -26 65 -9 98 8 17 17 31 18 31 2 0 3 -31 3 -70z"/>
<path d="M1243 1156 c14 -11 17 -29 17 -94 0 -68 -3 -81 -17 -85 -10 -3 24 -5
75 -6 87 -1 92 0 92 20 0 11 -5 17 -10 14 -6 -4 -8 -11 -5 -16 4 -5 -14 -9
-39 -9 -44 0 -46 1 -46 30 0 23 4 30 20 30 12 0 20 -7 20 -17 0 -9 3 -13 7
-10 9 10 10 58 1 63 -4 3 -8 -2 -8 -10 0 -9 -9 -16 -20 -16 -18 0 -20 7 -20
54 l0 55 38 -6 c20 -3 43 -10 50 -16 9 -7 12 -4 12 12 0 20 -5 21 -92 21 -80
-1 -90 -3 -75 -14z m57 -51 c0 -42 -3 -55 -15 -55 -12 0 -15 13 -15 55 0 42 3
55 15 55 12 0 15 -13 15 -55z m0 -95 c0 -20 -5 -30 -15 -30 -10 0 -15 10 -15
30 0 20 5 30 15 30 10 0 15 -10 15 -30z"/>
<path d="M1443 1156 c14 -11 17 -29 17 -94 0 -68 -3 -81 -17 -85 -10 -3 0 -5
22 -5 22 0 32 2 23 5 -15 4 -18 16 -18 71 l0 66 73 -72 c40 -39 76 -72 80 -72
4 0 7 43 7 96 0 61 4 93 10 89 6 -3 10 -1 10 4 0 6 -13 11 -30 11 -16 0 -30
-4 -30 -10 0 -5 4 -10 9 -10 5 0 11 -22 13 -50 l3 -49 -60 59 c-51 51 -66 60
-95 60 -31 -1 -33 -2 -17 -14z m104 -58 c33 -35 63 -74 66 -87 5 -19 -12 -7
-68 49 -67 67 -90 100 -67 100 4 0 35 -28 69 -62z"/>
<path d="M1660 1148 c0 -20 1 -21 13 -4 7 10 22 17 33 14 17 -3 19 -13 22 -90
2 -76 1 -87 -15 -91 -10 -3 9 -5 42 -5 33 0 52 2 43 5 -16 4 -18 17 -18 94 0
88 0 89 25 89 13 0 29 -8 34 -17 9 -16 10 -16 11 5 0 21 -3 22 -95 22 -91 0
-95 -1 -95 -22z m110 -78 c0 -73 -3 -90 -15 -90 -12 0 -15 17 -15 90 0 73 3
90 15 90 12 0 15 -17 15 -90z"/>
<path d="M1910 1150 c-25 -25 -26 -62 -2 -83 22 -20 102 -49 102 -37 0 4 -17
14 -37 21 -41 13 -63 27 -63 40 0 4 24 0 53 -10 59 -20 72 -46 38 -80 -32 -32
-101 -22 -101 14 0 8 -4 15 -10 15 -5 0 -10 -13 -10 -28 0 -27 2 -28 56 -30
71 -3 104 16 104 58 0 33 -21 50 -82 70 -49 15 -54 25 -23 46 32 21 75 12 75
-16 0 -11 5 -20 10 -20 6 0 10 12 10 28 0 25 -3 27 -50 30 -39 2 -53 -1 -70
-18z"/>
<path d="M1123 923 c9 -2 23 -2 30 0 6 3 -1 5 -18 5 -16 0 -22 -2 -12 -5z"/>
<path d="M1368 923 c7 -3 16 -2 19 1 4 3 -2 6 -13 5 -11 0 -14 -3 -6 -6z"/>
<path d="M1928 923 c7 -3 16 -2 19 1 4 3 -2 6 -13 5 -11 0 -14 -3 -6 -6z"/>
<path d="M1383 693 c92 -2 242 -2 335 0 92 1 16 3 -168 3 -184 0 -260 -2 -167
-3z"/>
</g>
</svg>
